<svg xmlns="http://www.w3.org/2000/svg" xmlns:xlink="http://www.w3.org/1999/xlink" version="1.1" style="shape-rendering:geometricPrecision; text-rendering:geometricPrecision; image-rendering:optimizeQuality; fill-rule:evenodd; clip-rule:evenodd" viewBox="51.5 50.5 372.12 77.12">
<g><path style="opacity:0.004" fill="#fefffe" d="M 51.5,50.5 C 52.8333,51.1667 52.8333,51.1667 51.5,50.5 Z"/></g>
<g><path style="opacity:0.103" fill="#ffdddd" d="M 387.5,52.5 C 399.322,51.5049 411.322,51.1716 423.5,51.5C 423.817,55.7016 423.483,59.7016 422.5,63.5C 422.5,59.8333 422.5,56.1667 422.5,52.5C 410.833,52.5 399.167,52.5 387.5,52.5 Z"/></g>
<g><path style="opacity:1" fill="#1b1c1e" d="M 56.5,51.5 C 60.4367,51.2065 64.27,51.5399 68,52.5C 68.6667,77.1667 68.6667,101.833 68,126.5C 63.9341,127.464 59.7675,127.797 55.5,127.5C 55.1766,102.092 55.5099,76.7589 56.5,51.5 Z"/></g>
<g><path style="opacity:0.381" fill="#99a0ac" d="M 89.5,55.5 C 89.2172,56.2891 88.7172,56.9558 88,57.5C 87.5065,55.8659 87.3398,54.1992 87.5,52.5C 83.8333,52.5 80.1667,52.5 76.5,52.5C 76.5,77.1667 76.5,101.833 76.5,126.5C 75.5023,101.672 75.169,76.6722 75.5,51.5C 79.8333,51.5 84.1667,51.5 88.5,51.5C 88.2322,53.099 88.5655,54.4324 89.5,55.5 Z"/></g>
<g><path style="opacity:1" fill="#0c0c0d" d="M 108.5,126.5 C 104.833,126.5 101.167,126.5 97.5,126.5C 97.5,105.5 97.5,84.5 97.5,63.5C 94.1667,63.5 90.8333,63.5 87.5,63.5C 87.5,84.5 87.5,105.5 87.5,126.5C 83.8333,126.5 80.1667,126.5 76.5,126.5C 76.5,101.833 76.5,77.1667 76.5,52.5C 80.1667,52.5 83.8333,52.5 87.5,52.5C 87.3398,54.1992 87.5065,55.8659 88,57.5C 88.7172,56.9558 89.2172,56.2891 89.5,55.5C 94.2533,50.7727 99.5866,50.2727 105.5,54C 107.317,55.7998 108.484,57.9664 109,60.5C 109.83,82.6705 109.663,104.671 108.5,126.5 Z"/></g>
<g><path style="opacity:1" fill="#141416" d="M 141.5,70.5 C 140.5,70.5 139.5,70.5 138.5,70.5C 138.5,68.1667 138.5,65.8333 138.5,63.5C 135.167,63.5 131.833,63.5 128.5,63.5C 128.17,70.1998 128.503,76.8665 129.5,83.5C 130.107,83.3764 130.44,83.0431 130.5,82.5C 136.001,79.2489 141.667,76.2489 147.5,73.5C 149.484,88.4636 150.151,103.797 149.5,119.5C 148.724,123.443 146.391,125.943 142.5,127C 136.5,127.667 130.5,127.667 124.5,127C 120.23,125.73 117.73,122.896 117,118.5C 116.333,115.5 116.333,112.5 117,109.5C 119.826,107.171 122.992,105.504 126.5,104.5C 128.414,107.684 129.08,111.351 128.5,115.5C 131.833,115.5 135.167,115.5 138.5,115.5C 138.5,107.833 138.5,100.167 138.5,92.5C 137.209,92.2627 136.209,92.596 135.5,93.5C 129.541,97.3129 123.208,100.313 116.5,102.5C 116.333,88.496 116.5,74.496 117,60.5C 117.833,55.6667 120.667,52.8333 125.5,52C 132.715,50.887 139.715,51.5537 146.5,54C 153.036,62.1272 151.37,67.6272 141.5,70.5 Z"/></g>
<g><path style="opacity:1" fill="#0b0c0d" d="M 201.5,76.5 C 199.57,72.6273 198.903,68.294 199.5,63.5C 196.287,63.19 193.287,63.5233 190.5,64.5C 190.5,81.1667 190.5,97.8333 190.5,114.5C 193.287,115.477 196.287,115.81 199.5,115.5C 199.829,109.463 199.496,103.463 198.5,97.5C 197.893,97.6236 197.56,97.9569 197.5,98.5C 196.85,98.8039 196.183,99.1373 195.5,99.5C 194.338,94.8687 194.172,90.202 195,85.5C 199.657,82.7547 204.49,80.4213 209.5,78.5C 210.496,94.3246 210.83,110.325 210.5,126.5C 202.167,126.5 193.833,126.5 185.5,126.5C 184.508,126.672 183.842,126.338 183.5,125.5C 183.027,124.094 182.027,123.427 180.5,123.5C 180.217,122.711 179.717,122.044 179,121.5C 178.333,100.167 178.333,78.8333 179,57.5C 180.48,54.3374 182.98,52.504 186.5,52C 193.249,51.1227 199.916,51.456 206.5,53C 208.378,54.5429 209.878,56.3762 211,58.5C 211.667,62.8333 211.667,67.1667 211,71.5C 207.885,73.3068 204.719,74.9735 201.5,76.5 Z"/></g>
<g><path style="opacity:0.911" fill="#373d4c" d="M 231.5,52.5 C 227.833,52.5 224.167,52.5 220.5,52.5C 220.5,77.1667 220.5,101.833 220.5,126.5C 224.167,126.5 227.833,126.5 231.5,126.5C 227.702,127.483 223.702,127.817 219.5,127.5C 219.5,102.167 219.5,76.8333 219.5,51.5C 223.702,51.1832 227.702,51.5166 231.5,52.5 Z"/></g>
<g><path style="opacity:1" fill="#070809" d="M 231.5,52.5 C 231.168,62.5222 231.501,72.5222 232.5,82.5C 234.5,81.5 236.5,80.5 238.5,79.5C 239.167,70.3423 239.833,61.3423 240.5,52.5C 244.167,52.5 247.833,52.5 251.5,52.5C 251.5,77.1667 251.5,101.833 251.5,126.5C 247.833,126.5 244.167,126.5 240.5,126.5C 240.832,115.147 240.499,103.814 239.5,92.5C 238.893,92.6236 238.56,92.9569 238.5,93.5C 236.911,95.3056 234.911,96.6389 232.5,97.5C 231.502,107.144 231.168,116.81 231.5,126.5C 227.833,126.5 224.167,126.5 220.5,126.5C 220.5,101.833 220.5,77.1667 220.5,52.5C 224.167,52.5 227.833,52.5 231.5,52.5 Z"/></g>
<g><path style="opacity:0.54" fill="#a2a7b0" d="M 293.5,52.5 C 281.833,52.5 270.167,52.5 258.5,52.5C 258.5,56.1667 258.5,59.8333 258.5,63.5C 262.371,63.185 266.038,63.5184 269.5,64.5C 265.5,64.5 261.5,64.5 257.5,64.5C 257.5,60.1667 257.5,55.8333 257.5,51.5C 269.678,51.1716 281.678,51.5049 293.5,52.5 Z"/></g>
<g><path style="opacity:1" fill="#090a0d" d="M 293.5,52.5 C 293.5,56.5 293.5,60.5 293.5,64.5C 289.5,64.5 285.5,64.5 281.5,64.5C 281.5,85.5 281.5,106.5 281.5,127.5C 277.5,127.5 273.5,127.5 269.5,127.5C 269.5,106.5 269.5,85.5 269.5,64.5C 266.038,63.5184 262.371,63.185 258.5,63.5C 258.5,59.8333 258.5,56.1667 258.5,52.5C 270.167,52.5 281.833,52.5 293.5,52.5 Z"/></g>
<g><path style="opacity:1" fill="#ff443d" d="M 308.5,58.5 C 309.906,58.0269 310.573,57.0269 310.5,55.5C 311.453,53.39 313.119,52.2233 315.5,52C 323.045,50.8737 330.379,51.5404 337.5,54C 338.701,54.9025 339.535,56.0692 340,57.5C 341.132,68.0978 341.632,78.7645 341.5,89.5C 341.333,99.1667 341.167,108.833 341,118.5C 340.496,122.02 338.663,124.52 335.5,126C 328.167,126.667 320.833,126.667 313.5,126C 310.619,124.749 308.786,122.583 308,119.5C 307.18,99.0936 307.346,78.7603 308.5,58.5 Z M 320.5,64.5 C 323.167,64.5 325.833,64.5 328.5,64.5C 328.5,81.1667 328.5,97.8333 328.5,114.5C 325.833,114.5 323.167,114.5 320.5,114.5C 320.5,97.8333 320.5,81.1667 320.5,64.5 Z"/></g>
<g><path style="opacity:1" fill="#ff3c37" d="M 349.5,52.5 C 353.167,52.5 356.833,52.5 360.5,52.5C 360.5,73.5 360.5,94.5 360.5,115.5C 363.833,115.5 367.167,115.5 370.5,115.5C 370.5,94.5 370.5,73.5 370.5,52.5C 374.167,52.5 377.833,52.5 381.5,52.5C 381.5,74.8333 381.5,97.1667 381.5,119.5C 381.16,122.675 379.493,124.841 376.5,126C 368.988,126.822 361.655,126.655 354.5,125.5C 354.027,124.094 353.027,123.427 351.5,123.5C 350.207,122.158 349.374,120.491 349,118.5C 348.17,96.3295 348.337,74.3295 349.5,52.5 Z"/></g>
<g><path style="opacity:0.433" fill="#ffa8a7" d="M 349.5,52.5 C 353.298,51.5166 357.298,51.1832 361.5,51.5C 361.5,72.5 361.5,93.5 361.5,114.5C 364.167,114.5 366.833,114.5 369.5,114.5C 369.5,93.8333 369.5,73.1667 369.5,52.5C 369.833,52.5 370.167,52.5 370.5,52.5C 370.5,73.5 370.5,94.5 370.5,115.5C 367.167,115.5 363.833,115.5 360.5,115.5C 360.5,94.5 360.5,73.5 360.5,52.5C 356.833,52.5 353.167,52.5 349.5,52.5 Z"/></g>
<g><path style="opacity:0.286" fill="#ffc6c6" d="M 369.5,52.5 C 373.634,51.5151 377.968,51.1818 382.5,51.5C 382.831,74.3395 382.497,97.0061 381.5,119.5C 381.5,97.1667 381.5,74.8333 381.5,52.5C 377.833,52.5 374.167,52.5 370.5,52.5C 370.167,52.5 369.833,52.5 369.5,52.5 Z"/></g>
<g><path style="opacity:1" fill="#ff3131" d="M 387.5,52.5 C 399.167,52.5 410.833,52.5 422.5,52.5C 422.5,56.1667 422.5,59.8333 422.5,63.5C 418.5,63.5 414.5,63.5 410.5,63.5C 410.5,84.5 410.5,105.5 410.5,126.5C 406.833,126.5 403.167,126.5 399.5,126.5C 399.5,105.5 399.5,84.5 399.5,63.5C 395.5,63.5 391.5,63.5 387.5,63.5C 387.5,59.8333 387.5,56.1667 387.5,52.5 Z"/></g>
<g><path style="opacity:0.255" fill="#a4aab5" d="M 158.5,126.5 C 157.502,101.672 157.169,76.6722 157.5,51.5C 161.833,51.5 166.167,51.5 170.5,51.5C 170.5,76.8333 170.5,102.167 170.5,127.5C 166.298,127.817 162.298,127.483 158.5,126.5 Z"/></g>
<g><path style="opacity:1" fill="#000000" d="M 158.5,126.5 C 158.5,101.833 158.5,77.1667 158.5,52.5C 162.167,52.5 165.833,52.5 169.5,52.5C 169.5,77.1667 169.5,101.833 169.5,126.5C 165.833,126.5 162.167,126.5 158.5,126.5 Z"/></g>
<g><path style="opacity:0.738" fill="#5b6373" d="M 240.5,52.5 C 244.298,51.5166 248.298,51.1832 252.5,51.5C 252.5,76.8333 252.5,102.167 252.5,127.5C 248.298,127.817 244.298,127.483 240.5,126.5C 244.167,126.5 247.833,126.5 251.5,126.5C 251.5,101.833 251.5,77.1667 251.5,52.5C 247.833,52.5 244.167,52.5 240.5,52.5 Z"/></g>
<g><path style="opacity:0.38" fill="#ffb2ad" d="M 310.5,55.5 C 310.573,57.0269 309.906,58.0269 308.5,58.5C 308.427,56.9731 309.094,55.9731 310.5,55.5 Z"/></g>
<g><path style="opacity:0.393" fill="#8f96a4" d="M 108.5,126.5 C 104.702,127.483 100.702,127.817 96.5,127.5C 96.5,106.5 96.5,85.5 96.5,64.5C 93.8333,64.5 91.1667,64.5 88.5,64.5C 88.5,85.5 88.5,106.5 88.5,127.5C 84.2984,127.817 80.2984,127.483 76.5,126.5C 80.1667,126.5 83.8333,126.5 87.5,126.5C 87.5,105.5 87.5,84.5 87.5,63.5C 90.8333,63.5 94.1667,63.5 97.5,63.5C 97.5,84.5 97.5,105.5 97.5,126.5C 101.167,126.5 104.833,126.5 108.5,126.5 Z"/></g>
<g><path style="opacity:0.456" fill="#9297a2" d="M 141.5,70.5 C 140.469,71.2485 139.302,71.9152 138,72.5C 137.503,69.854 137.336,67.1873 137.5,64.5C 134.833,64.5 132.167,64.5 129.5,64.5C 129.177,70.69 129.51,76.69 130.5,82.5C 130.44,83.0431 130.107,83.3764 129.5,83.5C 128.503,76.8665 128.17,70.1998 128.5,63.5C 131.833,63.5 135.167,63.5 138.5,63.5C 138.5,65.8333 138.5,68.1667 138.5,70.5C 139.5,70.5 140.5,70.5 141.5,70.5 Z"/></g>
<g><path style="opacity:0.209" fill="#bbc5d9" d="M 190.5,64.5 C 193.287,63.5233 196.287,63.19 199.5,63.5C 198.903,68.294 199.57,72.6273 201.5,76.5C 200.791,77.404 199.791,77.7373 198.5,77.5C 198.5,73.1667 198.5,68.8333 198.5,64.5C 195.833,64.5 193.167,64.5 190.5,64.5 Z"/></g>
<g><path style="opacity:0.38" fill="#ffabaa" d="M 319.5,63.5 C 322.833,63.5 326.167,63.5 329.5,63.5C 329.5,80.8333 329.5,98.1667 329.5,115.5C 326.167,115.5 322.833,115.5 319.5,115.5C 319.5,98.1667 319.5,80.8333 319.5,63.5 Z M 320.5,64.5 C 320.5,81.1667 320.5,97.8333 320.5,114.5C 323.167,114.5 325.833,114.5 328.5,114.5C 328.5,97.8333 328.5,81.1667 328.5,64.5C 325.833,64.5 323.167,64.5 320.5,64.5 Z"/></g>
<g><path style="opacity:0.154" fill="#ffdcdc" d="M 387.5,63.5 C 391.5,63.5 395.5,63.5 399.5,63.5C 399.5,84.5 399.5,105.5 399.5,126.5C 398.503,106.007 398.169,85.3401 398.5,64.5C 394.629,64.815 390.962,64.4816 387.5,63.5 Z"/></g>
<g><path style="opacity:0.581" fill="#ff9796" d="M 422.5,63.5 C 419.038,64.4816 415.371,64.815 411.5,64.5C 411.831,85.3401 411.497,106.007 410.5,126.5C 410.5,105.5 410.5,84.5 410.5,63.5C 414.5,63.5 418.5,63.5 422.5,63.5 Z"/></g>
<g><path style="opacity:0.324" fill="#a0a7b7" d="M 147.5,73.5 C 148.209,72.596 149.209,72.2627 150.5,72.5C 150.83,88.3422 150.496,104.009 149.5,119.5C 150.151,103.797 149.484,88.4636 147.5,73.5 Z"/></g>
<g><path style="opacity:0.562" fill="#868b96" d="M 209.5,78.5 C 209.56,77.9569 209.893,77.6236 210.5,77.5C 211.499,94.1533 211.833,110.82 211.5,127.5C 202.651,127.826 193.984,127.493 185.5,126.5C 193.833,126.5 202.167,126.5 210.5,126.5C 210.83,110.325 210.496,94.3246 209.5,78.5 Z"/></g>
<g><path style="opacity:0.064" fill="#dee2ec" d="M 238.5,93.5 C 238.56,92.9569 238.893,92.6236 239.5,92.5C 240.499,103.814 240.832,115.147 240.5,126.5C 239.833,115.5 239.167,104.5 238.5,93.5 Z"/></g>
<g><path style="opacity:0.214" fill="#b7bfcd" d="M 197.5,98.5 C 197.56,97.9569 197.893,97.6236 198.5,97.5C 199.496,103.463 199.829,109.463 199.5,115.5C 196.287,115.81 193.287,115.477 190.5,114.5C 193.167,114.5 195.833,114.5 198.5,114.5C 198.821,108.974 198.488,103.64 197.5,98.5 Z"/></g>
<g><path style="opacity:0.206" fill="#9ca0a7" d="M 135.5,93.5 C 136.209,92.596 137.209,92.2627 138.5,92.5C 138.5,100.167 138.5,107.833 138.5,115.5C 135.167,115.5 131.833,115.5 128.5,115.5C 129.08,111.351 128.414,107.684 126.5,104.5C 127.209,103.596 128.209,103.263 129.5,103.5C 129.5,107.167 129.5,110.833 129.5,114.5C 132.167,114.5 134.833,114.5 137.5,114.5C 138.128,107.087 137.461,100.087 135.5,93.5 Z"/></g>
<g><path style="opacity:0.729" fill="#8791a6" d="M 180.5,123.5 C 182.027,123.427 183.027,124.094 183.5,125.5C 181.973,125.573 180.973,124.906 180.5,123.5 Z"/></g>
<g><path style="opacity:0.824" fill="#ffa19a" d="M 351.5,123.5 C 353.027,123.427 354.027,124.094 354.5,125.5C 352.973,125.573 351.973,124.906 351.5,123.5 Z"/></g>
</svg>