<svg id="visual" viewBox="0 0 900 600" width="900" height="600" xmlns="http://www.w3.org/2000/svg" xmlns:xlink="http://www.w3.org/1999/xlink" version="1.1"><path d="M0 62L16.7 63.2C33.3 64.3 66.7 66.7 100 64C133.3 61.3 166.7 53.7 200 48.5C233.3 43.3 266.7 40.7 300 41.2C333.3 41.7 366.7 45.3 400 49.7C433.3 54 466.7 59 500 58.8C533.3 58.7 566.7 53.3 600 50.5C633.3 47.7 666.7 47.3 700 52C733.3 56.7 766.7 66.3 800 67.7C833.3 69 866.7 62 883.3 58.5L900 55L900 0L883.3 0C866.7 0 833.3 0 800 0C766.7 0 733.3 0 700 0C666.7 0 633.3 0 600 0C566.7 0 533.3 0 500 0C466.7 0 433.3 0 400 0C366.7 0 333.3 0 300 0C266.7 0 233.3 0 200 0C166.7 0 133.3 0 100 0C66.7 0 33.3 0 16.7 0L0 0Z" fill="#27272a" stroke-linecap="round" stroke-linejoin="miter"></path></svg>